<?xml version="1.0" encoding="UTF-8"?>
<svg width="182.88mm" height="182.88mm" version="1.1" viewBox="0 0 182.88 182.88" xmlns="http://www.w3.org/2000/svg">
<g transform="translate(-11.555 -36.665)">
<g transform="translate(61.707 106.66)" fill="none" stroke-linecap="round" stroke-linejoin="round" stroke-width="20">
<path transform="scale(1,-1)" d="m43.354 59.992a49.748 81.44 0 0 1-35.177-23.853 49.748 81.44 0 0 1-14.571-57.587" stroke="#ff8000" style="paint-order:fill markers stroke"/>
<path transform="rotate(90)" d="m22.658 40.152a49.748 81.44 0 0 1-43.083-40.72 49.748 81.44 0 0 1 0-81.44 49.748 81.44 0 0 1 43.083-40.72" stroke="#0080ff" style="paint-order:fill markers stroke"/>
<path transform="scale(-1,1)" d="m-43.354 102.89a49.748 81.44 0 0 1-35.177-23.853 49.748 81.44 0 0 1-14.571-57.587" stroke="#ff8000" style="paint-order:fill markers stroke"/>
<path transform="matrix(0,-1,-1,0,0,0)" d="m-22.658 40.152a49.748 81.44 0 0 1-43.083-40.72 49.748 81.44 0 0 1 0-81.44 49.748 81.44 0 0 1 43.083-40.72" stroke="#0080ff" style="paint-order:fill markers stroke"/>
<path d="m43.354 102.89a49.748 81.44 0 0 1-35.177-23.853 49.748 81.44 0 0 1-14.571-57.587" stroke="#ff8000" style="paint-order:fill markers stroke"/>
<path transform="scale(-1)" d="m-43.354 59.992a49.748 81.44 0 0 1-35.177-23.853 49.748 81.44 0 0 1-14.571-57.587" stroke="#ff8000" style="paint-order:fill markers stroke"/>
</g>
</g>
</svg>