<svg width="9.631" height="14.697" viewBox="0 0 9.631 14.697" xmlns="http://www.w3.org/2000/svg"><g id="svgGroup" stroke-linecap="round" fill-rule="evenodd" font-size="9pt" stroke="#ffffff" stroke-width="0.05mm" fill="#ffffff" style="stroke:#ffffff;stroke-width:0.05mm;fill:#ffffff"><path d="M 7.935 2.905 L 7.935 4.016 A 0.704 0.704 0 0 0 7.956 4.194 A 0.494 0.494 0 0 0 8.099 4.437 A 0.548 0.548 0 0 0 8.484 4.59 A 0.592 0.592 0 0 0 8.688 4.556 A 0.521 0.521 0 0 0 8.887 4.425 Q 9.021 4.285 9.042 4.036 A 1.138 1.138 0 0 0 9.045 3.943 L 9.045 0.855 A 2.964 2.964 0 0 0 9.038 0.639 Q 9.016 0.342 8.929 0.195 A 0.38 0.38 0 0 0 8.655 0.008 A 0.573 0.573 0 0 0 8.557 0 Q 8.215 0 8.069 0.281 Q 7.936 0.535 7.924 1.02 A 4.008 4.008 0 0 0 7.922 1.123 A 2.838 2.838 0 0 0 6.866 0.396 A 3.67 3.67 0 0 0 6.403 0.244 A 7.775 7.775 0 0 0 4.911 0.015 A 9.049 9.049 0 0 0 4.382 0 A 5.49 5.49 0 0 0 3.066 0.153 A 4.694 4.694 0 0 0 2.252 0.433 A 3.535 3.535 0 0 0 0.732 1.709 A 3.306 3.306 0 0 0 0.226 3.029 A 4.393 4.393 0 0 0 0.171 3.735 A 4.148 4.148 0 0 0 0.233 4.477 Q 0.338 5.051 0.616 5.475 A 3.25 3.25 0 0 0 1.782 6.549 Q 2.502 6.946 3.65 7.337 L 5.652 8.02 A 15.282 15.282 0 0 1 6.285 8.254 Q 6.564 8.364 6.801 8.474 A 6.448 6.448 0 0 1 7.233 8.691 A 2.76 2.76 0 0 1 7.77 9.077 A 2.245 2.245 0 0 1 8.142 9.522 Q 8.441 9.993 8.458 10.693 A 3.507 3.507 0 0 1 8.459 10.779 Q 8.459 11.889 7.942 12.558 A 2.13 2.13 0 0 1 7.544 12.952 A 3.281 3.281 0 0 1 6.306 13.524 Q 5.837 13.636 5.29 13.646 A 5.934 5.934 0 0 1 5.176 13.648 Q 4.187 13.648 3.241 13.318 A 5.764 5.764 0 0 1 2.48 12.993 Q 2.033 12.761 1.697 12.47 A 2.543 2.543 0 0 1 1.411 12.182 Q 1.099 11.809 1.099 11.438 L 1.099 9.985 A 0.77 0.77 0 0 0 1.078 9.803 A 0.519 0.519 0 0 0 0.934 9.546 A 0.551 0.551 0 0 0 0.537 9.387 A 0.603 0.603 0 0 0 0.346 9.416 A 0.507 0.507 0 0 0 0.153 9.534 A 0.469 0.469 0 0 0 0.028 9.745 Q 0.006 9.819 0.001 9.909 A 0.966 0.966 0 0 0 0 9.961 L 0 13.794 A 3.078 3.078 0 0 0 0.008 14.03 Q 0.026 14.255 0.079 14.394 A 0.516 0.516 0 0 0 0.134 14.502 Q 0.269 14.697 0.586 14.697 A 0.366 0.366 0 0 0 0.87 14.561 Q 0.953 14.467 1.013 14.307 Q 1.152 13.936 1.159 13.278 A 6.613 6.613 0 0 0 1.16 13.208 Q 1.746 13.828 2.743 14.217 A 6.574 6.574 0 0 0 2.954 14.295 A 7.415 7.415 0 0 0 4.142 14.609 A 5.831 5.831 0 0 0 5.139 14.697 Q 6.384 14.697 7.397 14.295 A 3.484 3.484 0 0 0 9.021 13.001 Q 9.595 12.163 9.629 10.894 A 6.04 6.04 0 0 0 9.631 10.73 A 4.016 4.016 0 0 0 9.561 9.958 Q 9.461 9.448 9.22 9.041 A 2.566 2.566 0 0 0 9.204 9.015 A 3.344 3.344 0 0 0 8.398 8.119 A 4.196 4.196 0 0 0 7.977 7.831 A 7.685 7.685 0 0 0 7.31 7.475 Q 6.946 7.302 6.516 7.135 A 16.437 16.437 0 0 0 5.896 6.909 L 4.236 6.336 A 41.948 41.948 0 0 1 3.668 6.133 Q 2.881 5.844 2.478 5.652 A 2.168 2.168 0 0 1 1.943 5.296 A 1.894 1.894 0 0 1 1.642 4.944 Q 1.42 4.61 1.363 4.075 A 3.751 3.751 0 0 1 1.343 3.674 A 2.723 2.723 0 0 1 1.477 2.8 A 2.236 2.236 0 0 1 2.222 1.752 A 2.961 2.961 0 0 1 3.234 1.237 Q 3.857 1.05 4.663 1.05 A 5.373 5.373 0 0 1 6.146 1.257 A 3.624 3.624 0 0 1 6.834 1.528 A 2.876 2.876 0 0 1 7.367 1.886 A 1.708 1.708 0 0 1 7.745 2.332 A 1.501 1.501 0 0 1 7.935 2.905 Z"/></g></svg>